<svg width="232" height="65" viewBox="0 0 232 65" fill="none" xmlns="http://www.w3.org/2000/svg">
<g clip-path="url(#clip0)">
<path fill-rule="evenodd" clip-rule="evenodd" d="M26.2899 31.4601L23.551 44.2063H33.0317C32.0837 51.0535 16.7039 54.003 19.0214 37.4645C20.7068 25.877 33.8745 19.6619 36.824 28.6159L53.1519 24.0862C47.6741 -2.4597 4.48432 2.91269 1.00807 38.4126C-0.677388 55.6885 11.1208 65.1692 24.8151 64.9585C34.6118 64.7478 42.3017 60.8502 45.9887 58.006L51.6771 31.5654H26.2899V31.4601Z" fill="white"/>
<path fill-rule="evenodd" clip-rule="evenodd" d="M56.2067 24.929L47.9901 62.957H65.0553L73.1666 24.929H56.2067Z" fill="white"/>
<path fill-rule="evenodd" clip-rule="evenodd" d="M81.5939 0.489838L68.1102 62.957H85.0701L98.6591 0.489838H81.5939Z" fill="white"/>
<path fill-rule="evenodd" clip-rule="evenodd" d="M76.5376 9.33847H59.5777L56.5228 23.2435L74.6414 18.2925L76.5376 9.33847Z" fill="white"/>
<path fill-rule="evenodd" clip-rule="evenodd" d="M214.324 22.0847C207.371 22.0847 201.577 25.561 197.574 30.828C198.206 27.9838 198.838 24.9289 198.838 24.9289H192.939L196.521 8.39041H179.561L175.979 24.9289H172.819L176.401 8.39041H159.441L155.859 24.9289H150.066L147.959 35.0417C146.063 26.2984 138.478 22.0847 131.42 22.0847C121.413 22.0847 113.723 29.2479 110.457 39.0446L118.569 0.489838H101.609L88.0197 62.957H105.085L108.772 45.8918C108.14 52.739 110.563 64.9585 125.837 64.9585C133.527 64.9585 143.324 59.4808 145.747 51.8962L132.474 49.368C130.999 51.4749 128.787 52.739 126.575 52.739C122.888 52.739 121.939 49.368 122.677 46.3132H147.432C147.643 45.3651 148.169 44.417 148.38 41.0461C148.485 39.9927 148.38 39.0446 148.275 38.0966H153.12L147.748 63.0624H164.708L170.186 38.0966H173.346L167.973 63.0624H184.933L190.411 38.0966H193.993C193.993 38.0966 192.518 42.7316 192.202 45.2597V45.3651C191.359 52.0016 193.361 65.0638 209.162 65.0638C216.852 65.0638 226.648 59.5861 229.071 52.0016L215.798 49.4734C214.324 51.5802 212.111 52.8443 209.899 52.8443C206.212 52.8443 205.264 49.4734 206.002 46.4185H230.757C230.967 45.4704 231.494 44.417 231.705 41.1514C232.126 27.9838 222.856 22.0847 214.324 22.0847ZM133.948 38.6233L124.573 38.5179C125.942 33.2509 134.686 31.9868 133.948 38.6233ZM217.062 38.6233H207.687C209.162 33.2509 217.8 31.9868 217.062 38.6233Z" fill="white"/>
</g>
<defs>
<clipPath id="clip0">
<rect width="230.591" height="64.4687" fill="white" transform="translate(0.797363 0.489838)"/>
</clipPath>
</defs>
</svg>
