<svg width="360" height="115" viewBox="0 0 360 115" fill="none" xmlns="http://www.w3.org/2000/svg">
<g clip-path="url(#clip0)">
<rect x="1" y="0.893311" width="360" height="114.107" fill="url(#paint0_linear)"/>
<g filter="url(#filter0_d)">
<path d="M38.5236 45.6559V24.3278H46.1847C48.9288 24.3278 51.0138 24.8307 52.4396 25.8366C53.8751 26.8425 54.5929 28.3024 54.5929 30.2165C54.5929 31.32 54.339 32.2624 53.8312 33.0436C53.3234 33.8249 52.5763 34.4011 51.59 34.7722C52.7032 35.0651 53.5577 35.612 54.1534 36.4128C54.7491 37.2136 55.047 38.1901 55.047 39.3425C55.047 41.4323 54.3829 43.0046 53.0548 44.0593C51.7365 45.1042 49.7784 45.6364 47.1808 45.6559H38.5236ZM43.6652 36.5886V41.7009H47.0343C47.962 41.7009 48.6749 41.4909 49.173 41.071C49.671 40.6413 49.92 40.0407 49.92 39.2692C49.92 37.4919 49.0363 36.5983 47.2687 36.5886H43.6652ZM43.6652 33.2194H46.3458C47.4689 33.2097 48.2697 33.0046 48.7482 32.6042C49.2267 32.2038 49.4659 31.613 49.4659 30.8317C49.4659 29.9333 49.2072 29.2888 48.6896 28.8981C48.172 28.4977 47.337 28.2975 46.1847 28.2975H43.6652V33.2194ZM65.3302 45.9489C62.8986 45.9489 60.9308 45.2263 59.4269 43.7809C57.923 42.3259 57.171 40.4362 57.171 38.112V37.7018C57.171 36.0807 57.4689 34.6501 58.0646 33.4099C58.67 32.1696 59.549 31.2126 60.7013 30.5388C61.8536 29.8552 63.2208 29.5134 64.8029 29.5134C67.0294 29.5134 68.7872 30.2067 70.0763 31.5934C71.3654 32.9704 72.0099 34.8942 72.0099 37.3649V39.2839H62.1954C62.3712 40.1725 62.757 40.8708 63.3527 41.3786C63.9484 41.8864 64.7198 42.1403 65.6671 42.1403C67.2296 42.1403 68.4503 41.5934 69.3292 40.4997L71.5851 43.1657C70.9698 44.0153 70.0958 44.694 68.963 45.2018C67.84 45.6999 66.629 45.9489 65.3302 45.9489ZM64.7736 33.322C63.3282 33.322 62.4689 34.279 62.1954 36.1931H67.1759V35.8122C67.1954 35.0212 66.9952 34.4108 66.5753 33.9811C66.1554 33.5417 65.5548 33.322 64.7736 33.322ZM88.7238 37.8483C88.7238 40.3093 88.1671 42.277 87.0538 43.7516C85.9503 45.2165 84.4562 45.9489 82.5714 45.9489C81.1163 45.9489 79.92 45.4167 78.9825 44.3522V51.7497H74.046V29.8063H78.6603L78.8068 31.2712C79.754 30.0993 80.9991 29.5134 82.5421 29.5134C84.4952 29.5134 86.0138 30.236 87.0978 31.6813C88.1818 33.1169 88.7238 35.0944 88.7238 37.614V37.8483ZM83.7872 37.5407C83.7872 34.7282 82.9669 33.322 81.3263 33.322C80.1544 33.322 79.3732 33.7419 78.9825 34.5817V40.822C79.4122 41.7009 80.2032 42.1403 81.3556 42.1403C82.9279 42.1403 83.7384 40.7829 83.7872 38.0681V37.5407ZM105.027 45.6559H100.076V39.7819H95.755V45.6559H90.8185V29.8063H95.755V35.988H100.076V29.8063H105.027V45.6559ZM115.399 45.9489C112.967 45.9489 110.999 45.2263 109.495 43.7809C107.991 42.3259 107.239 40.4362 107.239 38.112V37.7018C107.239 36.0807 107.537 34.6501 108.133 33.4099C108.738 32.1696 109.617 31.2126 110.77 30.5388C111.922 29.8552 113.289 29.5134 114.871 29.5134C117.098 29.5134 118.856 30.2067 120.145 31.5934C121.434 32.9704 122.078 34.8942 122.078 37.3649V39.2839H112.264C112.44 40.1725 112.825 40.8708 113.421 41.3786C114.017 41.8864 114.788 42.1403 115.735 42.1403C117.298 42.1403 118.519 41.5934 119.398 40.4997L121.653 43.1657C121.038 44.0153 120.164 44.694 119.031 45.2018C117.908 45.6999 116.697 45.9489 115.399 45.9489ZM114.842 33.322C113.397 33.322 112.537 34.279 112.264 36.1931H117.244V35.8122C117.264 35.0212 117.064 34.4108 116.644 33.9811C116.224 33.5417 115.623 33.322 114.842 33.322ZM108.118 25.6462C108.118 25.1091 108.328 24.6501 108.748 24.2692C109.178 23.8884 109.705 23.6979 110.33 23.6979C110.955 23.6979 111.478 23.8884 111.898 24.2692C112.327 24.6501 112.542 25.1091 112.542 25.6462C112.542 26.1833 112.327 26.6423 111.898 27.0231C111.478 27.404 110.955 27.5944 110.33 27.5944C109.705 27.5944 109.178 27.404 108.748 27.0231C108.328 26.6423 108.118 26.1833 108.118 25.6462ZM115.721 25.6462C115.721 25.1091 115.931 24.6501 116.351 24.2692C116.78 23.8884 117.308 23.6979 117.933 23.6979C118.558 23.6979 119.08 23.8884 119.5 24.2692C119.93 24.6501 120.145 25.1091 120.145 25.6462C120.145 26.1833 119.93 26.6423 119.5 27.0231C119.08 27.404 118.558 27.5944 117.933 27.5944C117.308 27.5944 116.78 27.404 116.351 27.0231C115.931 26.6423 115.721 26.1833 115.721 25.6462ZM134.002 40.2067L137.591 29.8063H143.802V45.6559H138.851V36.8669L135.657 45.6559H132.376L129.359 37.3356V45.6559H124.407V29.8063H130.472L134.002 40.2067ZM154.993 41.8474C155.784 41.0563 156.356 40.2702 156.707 39.489C157.068 38.7077 157.278 37.7995 157.337 36.7643L157.381 35.6804L157.469 29.8063H169.818V41.8474H172.191V50.4606H167.239V45.6559H158.655V50.4606H153.587L153.572 41.8474H154.993ZM160.677 41.8474H164.896V33.6149H162.361L162.347 34.9186C162.278 37.7702 161.722 40.0798 160.677 41.8474ZM173.26 37.5847C173.26 36.0026 173.568 34.5964 174.183 33.3659C174.798 32.1257 175.682 31.1735 176.834 30.5095C177.986 29.8454 179.339 29.5134 180.892 29.5134C183.265 29.5134 185.135 30.2507 186.502 31.7253C187.869 33.1901 188.553 35.1872 188.553 37.7165V37.8923C188.553 40.363 187.864 42.3259 186.487 43.7809C185.12 45.2263 183.265 45.9489 180.921 45.9489C178.665 45.9489 176.854 45.2751 175.486 43.9274C174.119 42.57 173.382 40.7341 173.275 38.4196L173.26 37.5847ZM178.196 37.8923C178.196 39.3571 178.426 40.4313 178.885 41.1149C179.344 41.7985 180.023 42.1403 180.921 42.1403C182.679 42.1403 183.577 40.7878 183.616 38.0827V37.5847C183.616 34.7429 182.708 33.322 180.892 33.322C179.241 33.322 178.348 34.5475 178.211 36.9987L178.196 37.8923ZM212.503 30.0261C212.503 31.0612 212.244 31.9743 211.727 32.7653C211.219 33.5563 210.516 34.1911 209.617 34.6696C210.633 35.1677 211.439 35.8513 212.034 36.7204C212.63 37.5798 212.928 38.6003 212.928 39.7819C212.928 41.6862 212.269 43.1901 210.95 44.2936C209.642 45.3972 207.835 45.9489 205.53 45.9489C203.216 45.9489 201.39 45.3972 200.052 44.2936C198.714 43.1804 198.045 41.6765 198.045 39.7819C198.045 38.6393 198.338 37.6286 198.924 36.7497C199.51 35.8708 200.34 35.1774 201.414 34.6696C200.506 34.1911 199.793 33.5563 199.276 32.7653C198.758 31.9743 198.499 31.0612 198.499 30.0261C198.499 28.1706 199.129 26.7057 200.389 25.6315C201.649 24.5573 203.348 24.0202 205.486 24.0202C207.645 24.0202 209.354 24.5573 210.613 25.6315C211.873 26.7057 212.503 28.1706 212.503 30.0261ZM207.977 39.3864C207.977 38.5075 207.747 37.8337 207.288 37.3649C206.839 36.8864 206.243 36.6472 205.501 36.6472C204.759 36.6472 204.158 36.8864 203.699 37.3649C203.24 37.8337 203.011 38.5075 203.011 39.3864C203.011 40.236 203.24 40.9099 203.699 41.4079C204.168 41.8962 204.778 42.1403 205.53 42.1403C206.263 42.1403 206.854 41.8962 207.303 41.4079C207.752 40.9196 207.977 40.2458 207.977 39.3864ZM205.486 27.8288C204.822 27.8288 204.315 28.0485 203.963 28.488C203.621 28.9177 203.45 29.5182 203.45 30.2897C203.45 31.0515 203.626 31.6667 203.978 32.1354C204.329 32.6042 204.847 32.8386 205.53 32.8386C206.204 32.8386 206.707 32.6042 207.039 32.1354C207.381 31.6667 207.552 31.0515 207.552 30.2897C207.552 29.528 207.376 28.9274 207.025 28.488C206.683 28.0485 206.17 27.8288 205.486 27.8288ZM237.757 37.8483C237.757 40.3093 237.2 42.277 236.087 43.7516C234.984 45.2165 233.489 45.9489 231.605 45.9489C230.15 45.9489 228.953 45.4167 228.016 44.3522V51.7497H223.079V29.8063H227.693L227.84 31.2712C228.787 30.0993 230.032 29.5134 231.575 29.5134C233.528 29.5134 235.047 30.236 236.131 31.6813C237.215 33.1169 237.757 35.0944 237.757 37.614V37.8483ZM232.82 37.5407C232.82 34.7282 232 33.322 230.359 33.322C229.188 33.322 228.406 33.7419 228.016 34.5817V40.822C228.445 41.7009 229.236 42.1403 230.389 42.1403C231.961 42.1403 232.772 40.7829 232.82 38.0681V37.5407ZM246.107 38.7419L248.743 29.8063H254.031L247.571 48.3073L247.293 48.9811C246.375 51.0319 244.754 52.0573 242.43 52.0573C241.785 52.0573 241.107 51.9597 240.394 51.7643V48.2341H241.038C241.732 48.2341 242.259 48.1315 242.62 47.9265C242.991 47.7311 243.265 47.3747 243.441 46.8571L243.836 45.8024L238.328 29.8063H243.602L246.107 38.7419ZM263.655 30.6852C265.726 30.6852 267.366 31.364 268.577 32.7214C269.798 34.0788 270.408 35.9294 270.408 38.2731V38.4782C270.408 39.9626 270.101 41.2761 269.485 42.4186C268.87 43.5515 267.982 44.4255 266.819 45.0407C265.667 45.6559 264.315 45.9636 262.762 45.9636C260.418 45.9636 258.548 45.2116 257.151 43.7077C255.765 42.2038 255.071 40.1335 255.071 37.4968V37.028C255.091 33.4147 255.687 30.5729 256.859 28.5026C258.03 26.4323 259.822 25.1286 262.234 24.5915C263.318 24.3474 264.026 24.113 264.359 23.8884C264.7 23.654 264.871 23.2927 264.871 22.8044H268.841C268.841 24.0251 268.651 24.9528 268.27 25.5876C267.899 26.2224 267.303 26.7497 266.483 27.1696C265.672 27.5798 264.529 27.9216 263.055 28.195C261.893 28.4099 260.994 28.8688 260.359 29.572C259.734 30.2653 259.31 31.237 259.085 32.487C260.403 31.2858 261.927 30.6852 263.655 30.6852ZM262.733 34.4938C260.926 34.4938 260.023 35.7438 260.023 38.2438V38.4782C260.023 40.9294 260.936 42.155 262.762 42.155C264.529 42.155 265.433 40.9831 265.472 38.6393V38.1706C265.472 35.7194 264.559 34.4938 262.733 34.4938ZM286.829 29.8063V45.6559H281.893V33.6149H278.934L278.67 38.4636C278.484 40.8659 277.943 42.6628 277.044 43.8542C276.146 45.0456 274.813 45.6462 273.045 45.6559H271.492L271.434 41.8766L271.946 41.8181C272.601 41.7399 273.084 41.3054 273.397 40.5143C273.719 39.7136 273.924 38.5075 274.012 36.8962L274.319 29.8063H286.829ZM297.186 45.9489C294.754 45.9489 292.786 45.2263 291.282 43.7809C289.778 42.3259 289.026 40.4362 289.026 38.112V37.7018C289.026 36.0807 289.324 34.6501 289.92 33.4099C290.526 32.1696 291.404 31.2126 292.557 30.5388C293.709 29.8552 295.076 29.5134 296.658 29.5134C298.885 29.5134 300.643 30.2067 301.932 31.5934C303.221 32.9704 303.865 34.8942 303.865 37.3649V39.2839H294.051C294.227 40.1725 294.612 40.8708 295.208 41.3786C295.804 41.8864 296.575 42.1403 297.523 42.1403C299.085 42.1403 300.306 41.5934 301.185 40.4997L303.441 43.1657C302.825 44.0153 301.951 44.694 300.818 45.2018C299.695 45.6999 298.484 45.9489 297.186 45.9489ZM296.629 33.322C295.184 33.322 294.324 34.279 294.051 36.1931H299.031V35.8122C299.051 35.0212 298.851 34.4108 298.431 33.9811C298.011 33.5417 297.41 33.322 296.629 33.322ZM315.086 29.8063H320.037V45.6559H315.086V36.4274L310.735 45.6559H305.77V29.8063H310.735V39.0056L315.086 29.8063ZM318.441 23.1266C318.441 24.4645 317.947 25.5485 316.961 26.3786C315.975 27.2087 314.661 27.6237 313.021 27.6237C311.38 27.6237 310.067 27.2087 309.08 26.3786C308.094 25.5485 307.601 24.4645 307.601 23.1266H310.955C310.955 23.7126 311.136 24.1716 311.497 24.5036C311.868 24.8259 312.376 24.987 313.021 24.987C313.665 24.987 314.163 24.8307 314.515 24.5182C314.876 24.196 315.057 23.7321 315.057 23.1266H318.441ZM114.49 76.6559H109.539V70.7819H105.218V76.6559H100.281V60.8063H105.218V66.988H109.539V60.8063H114.49V76.6559ZM126.121 76.6559C125.945 76.3337 125.789 75.86 125.652 75.235C124.744 76.3776 123.475 76.9489 121.844 76.9489C120.35 76.9489 119.08 76.4997 118.035 75.6013C116.99 74.6931 116.468 73.5554 116.468 72.1882C116.468 70.4694 117.103 69.1706 118.372 68.2917C119.642 67.4128 121.487 66.9733 123.909 66.9733H125.433V66.1384C125.433 64.6833 124.803 63.9557 123.543 63.9557C122.371 63.9557 121.785 64.5319 121.785 65.6843H116.849C116.849 64.1511 117.498 62.9059 118.797 61.9489C120.106 60.9919 121.771 60.5134 123.792 60.5134C125.814 60.5134 127.41 61.0065 128.582 61.9929C129.754 62.9792 130.355 64.3317 130.384 66.0505V73.0671C130.403 74.5222 130.628 75.6354 131.058 76.4069V76.6559H126.121ZM123.03 73.4333C123.646 73.4333 124.153 73.3015 124.554 73.0378C124.964 72.7741 125.257 72.4763 125.433 72.1442V69.61H123.997C122.278 69.61 121.419 70.3815 121.419 71.9245C121.419 72.3737 121.57 72.7399 121.873 73.0231C122.176 73.2966 122.562 73.4333 123.03 73.4333ZM154.481 64.5856H149.485V76.6559H144.52V64.5856H139.598V60.8063H154.481V64.5856ZM163.065 76.9489C160.633 76.9489 158.665 76.2263 157.161 74.7809C155.657 73.3259 154.905 71.4362 154.905 69.112V68.7018C154.905 67.0807 155.203 65.6501 155.799 64.4099C156.404 63.1696 157.283 62.2126 158.436 61.5388C159.588 60.8552 160.955 60.5134 162.537 60.5134C164.764 60.5134 166.522 61.2067 167.811 62.5934C169.1 63.9704 169.744 65.8942 169.744 68.3649V70.2839H159.93C160.106 71.1725 160.491 71.8708 161.087 72.3786C161.683 72.8864 162.454 73.1403 163.401 73.1403C164.964 73.1403 166.185 72.5934 167.064 71.4997L169.319 74.1657C168.704 75.0153 167.83 75.694 166.697 76.2018C165.574 76.6999 164.363 76.9489 163.065 76.9489ZM162.508 64.322C161.063 64.322 160.203 65.279 159.93 67.1931H164.91V66.8122C164.93 66.0212 164.73 65.4108 164.31 64.9811C163.89 64.5417 163.289 64.322 162.508 64.322ZM185.901 60.8063V76.6559H180.965V64.6149H178.006L177.742 69.4636C177.557 71.8659 177.015 73.6628 176.116 74.8542C175.218 76.0456 173.885 76.6462 172.117 76.6559H170.565L170.506 72.8766L171.019 72.8181C171.673 72.7399 172.156 72.3054 172.469 71.5143C172.791 70.7136 172.996 69.5075 173.084 67.8962L173.392 60.8063H185.901ZM196.258 76.9489C193.826 76.9489 191.859 76.2263 190.355 74.7809C188.851 73.3259 188.099 71.4362 188.099 69.112V68.7018C188.099 67.0807 188.397 65.6501 188.992 64.4099C189.598 63.1696 190.477 62.2126 191.629 61.5388C192.781 60.8552 194.149 60.5134 195.731 60.5134C197.957 60.5134 199.715 61.2067 201.004 62.5934C202.293 63.9704 202.938 65.8942 202.938 68.3649V70.2839H193.123C193.299 71.1725 193.685 71.8708 194.28 72.3786C194.876 72.8864 195.648 73.1403 196.595 73.1403C198.157 73.1403 199.378 72.5934 200.257 71.4997L202.513 74.1657C201.898 75.0153 201.024 75.694 199.891 76.2018C198.768 76.6999 197.557 76.9489 196.258 76.9489ZM195.701 64.322C194.256 64.322 193.397 65.279 193.123 67.1931H198.104V66.8122C198.123 66.0212 197.923 65.4108 197.503 64.9811C197.083 64.5417 196.483 64.322 195.701 64.322ZM204.329 68.7604C204.329 66.2311 204.852 64.2243 205.897 62.7399C206.951 61.2556 208.397 60.5134 210.233 60.5134C210.858 60.5134 211.478 60.6403 212.093 60.8942V54.1559H217.029V60.8796C217.596 60.6354 218.206 60.5134 218.86 60.5134C220.706 60.5134 222.151 61.2604 223.196 62.7546C224.251 64.2487 224.778 66.3532 224.778 69.0681C224.778 71.5095 224.246 73.4333 223.182 74.8395C222.127 76.2458 220.696 76.9489 218.89 76.9489C218.206 76.9489 217.586 76.8366 217.029 76.612V82.7497H212.093V76.5974C211.478 76.8317 210.848 76.9489 210.203 76.9489C208.406 76.9489 206.976 76.2458 205.911 74.8395C204.857 73.4333 204.329 71.4753 204.329 68.9655V68.7604ZM209.266 69.0681C209.266 71.7438 209.974 73.0964 211.39 73.1257H211.771L212.093 73.0964V64.3659L211.478 64.322C210.003 64.322 209.266 65.904 209.266 69.0681ZM219.827 68.7604C219.827 67.364 219.642 66.2751 219.271 65.4938C218.909 64.7126 218.367 64.322 217.645 64.322L217.029 64.3659V73.111L217.674 73.1403C218.992 73.1403 219.705 72.0124 219.813 69.7565L219.827 68.7604ZM226.317 68.5847C226.317 67.0026 226.624 65.5964 227.239 64.3659C227.855 63.1257 228.738 62.1735 229.891 61.5095C231.043 60.8454 232.396 60.5134 233.948 60.5134C236.321 60.5134 238.192 61.2507 239.559 62.7253C240.926 64.1901 241.609 66.1872 241.609 68.7165V68.8923C241.609 71.363 240.921 73.3259 239.544 74.7809C238.177 76.2263 236.321 76.9489 233.978 76.9489C231.722 76.9489 229.91 76.2751 228.543 74.9274C227.176 73.57 226.439 71.7341 226.331 69.4196L226.317 68.5847ZM231.253 68.8923C231.253 70.3571 231.483 71.4313 231.942 72.1149C232.401 72.7985 233.079 73.1403 233.978 73.1403C235.735 73.1403 236.634 71.7878 236.673 69.0827V68.5847C236.673 65.7429 235.765 64.322 233.948 64.322C232.298 64.322 231.404 65.5475 231.268 67.9987L231.253 68.8923ZM257.899 76.6559H252.947V70.7819H248.626V76.6559H243.69V60.8063H248.626V66.988H252.947V60.8063H257.899V76.6559Z" fill="#FFED00"/>
</g>
</g>
<defs>
<filter id="filter0_d" x="38.5236" y="22.8044" width="283.514" height="64.9453" filterUnits="userSpaceOnUse" color-interpolation-filters="sRGB">
<feFlood flood-opacity="0" result="BackgroundImageFix"/>
<feColorMatrix in="SourceAlpha" type="matrix" values="0 0 0 0 0 0 0 0 0 0 0 0 0 0 0 0 0 0 127 0"/>
<feOffset dx="2" dy="5"/>
<feColorMatrix type="matrix" values="0 0 0 0 0.516667 0 0 0 0 0.17982 0 0 0 0 0 0 0 0 1 0"/>
<feBlend mode="normal" in2="BackgroundImageFix" result="effect1_dropShadow"/>
<feBlend mode="normal" in="SourceGraphic" in2="effect1_dropShadow" result="shape"/>
</filter>
<linearGradient id="paint0_linear" x1="8.84809" y1="12.0327" x2="350.757" y2="12.0327" gradientUnits="userSpaceOnUse">
<stop stop-color="#292D7A"/>
<stop offset="0.140625" stop-color="#EC6720"/>
<stop offset="0.838542" stop-color="#EC6720"/>
<stop offset="1" stop-color="#292D7A"/>
</linearGradient>
<clipPath id="clip0">
<rect width="360" height="115" fill="white"/>
</clipPath>
</defs>
</svg>
