<svg id="Слой_1" data-name="Слой 1" xmlns="http://www.w3.org/2000/svg" xmlns:xlink="http://www.w3.org/1999/xlink" viewBox="0 0 309.59 187.22"><defs><style>.cls-1{fill:none;}.cls-2{fill:#ec6720;}.cls-3,.cls-5{fill:#fff;}.cls-4{clip-path:url(#clip-path);}.cls-5{fill-rule:evenodd;}</style><clipPath id="clip-path" transform="translate(-27.03 -57.88)"><rect class="cls-1" x="28" y="57.88" width="146" height="40.82"/></clipPath></defs><path class="cls-2" d="M41.73,187.49H32.49v3.37h2.65a10.85,10.85,0,0,1,4.48.87,6.69,6.69,0,0,1,3,2.44,6.27,6.27,0,0,1,1.06,3.6,6.35,6.35,0,0,1-2.35,5.12,9.4,9.4,0,0,1-6.27,2H27.32V183.52H41.73Zm-9.24,7.33v6.08h2.64A3.42,3.42,0,0,0,37.6,200a3,3,0,0,0,.93-2.28,2.73,2.73,0,0,0-.91-2.12,3.67,3.67,0,0,0-2.52-.8Zm31.64-.2A12.46,12.46,0,0,1,63,200.15a8.54,8.54,0,0,1-3.29,3.7,9.16,9.16,0,0,1-4.85,1.29A9.29,9.29,0,0,1,50,203.9a8.63,8.63,0,0,1-3.3-3.59A12.32,12.32,0,0,1,45.47,195v-1.2a12.66,12.66,0,0,1,1.14-5.52,8.58,8.58,0,0,1,3.3-3.71,9.22,9.22,0,0,1,4.89-1.3,9.09,9.09,0,0,1,4.83,1.29,8.57,8.57,0,0,1,3.3,3.68,12.13,12.13,0,0,1,1.2,5.44Zm-5.23-.89a8.83,8.83,0,0,0-1.07-4.82,3.38,3.38,0,0,0-3-1.65q-3.87,0-4.09,5.8v1.56a9.32,9.32,0,0,0,1,4.83,3.4,3.4,0,0,0,3.09,1.68,3.34,3.34,0,0,0,3-1.66,8.9,8.9,0,0,0,1.07-4.76Zm25.36-10.21v21.33H79.12V187.49H74.33L74,194.65a21.48,21.48,0,0,1-1,5.92,6.4,6.4,0,0,1-2.3,3.24,7.26,7.26,0,0,1-4,1H65.23V200.9l.72-.08A2.75,2.75,0,0,0,68.17,199a18.86,18.86,0,0,0,.9-5.61l.36-9.82Zm16.43,12.29H92.61v5.09h9.55v3.95H87.47V183.52h14.72v4H92.61V192h8.08Zm16.79,0H109.4v5.09H119v3.95h-14.7V183.52H119v4H109.4V192h8.08Zm18.58.6h-2.44v8.44h-5.14V183.52h5.14v8.25h2l4.1-8.25h6.23l-5.86,9.85,6.59,11.48h-6.08Zm29.47-1.79a12.6,12.6,0,0,1-1.16,5.53,8.5,8.5,0,0,1-3.3,3.7,9.12,9.12,0,0,1-4.84,1.29,9.35,9.35,0,0,1-4.84-1.24,8.68,8.68,0,0,1-3.29-3.59,12.18,12.18,0,0,1-1.23-5.35v-1.2a12.66,12.66,0,0,1,1.14-5.52,8.62,8.62,0,0,1,3.29-3.71,9.28,9.28,0,0,1,4.9-1.3,9.11,9.11,0,0,1,4.83,1.29,8.57,8.57,0,0,1,3.3,3.68,12.13,12.13,0,0,1,1.2,5.44Zm-5.23-.89a8.92,8.92,0,0,0-1.07-4.82,3.38,3.38,0,0,0-3-1.65q-3.87,0-4.09,5.8v1.56a9.22,9.22,0,0,0,1,4.83,3.4,3.4,0,0,0,3.09,1.68,3.35,3.35,0,0,0,3-1.66,9,9,0,0,0,1.07-4.76Zm14.63-10.21,4.76,14.84,4.75-14.84h6.77v21.33h-5.16v-5l.5-10.2-5.16,15.18H178l-5.17-15.19.5,10.21v5h-5.14V183.52Zm33,1.82a8.9,8.9,0,0,1,6.63,2.49,8.77,8.77,0,0,1,2.47,6.49,9.3,9.3,0,0,1-.66,3.57,7.72,7.72,0,0,1-1.81,2.73A9.08,9.08,0,0,1,208,203v2.7h-5V203a9.16,9.16,0,0,1-6.68-2.41,8.38,8.38,0,0,1-2.47-6.27,9.86,9.86,0,0,1,.66-3.69,8.11,8.11,0,0,1,1.84-2.83,9,9,0,0,1,6.65-2.49v-2.7h5Zm-5.14,4.13a3.79,3.79,0,0,0-3,1.29,5.37,5.37,0,0,0-1.1,3.59,4.77,4.77,0,0,0,1.12,3.34,4.12,4.12,0,0,0,3.2,1.21v-9.43Zm5.14,0v9.43h.22a3.78,3.78,0,0,0,2.93-1.2,4.79,4.79,0,0,0,1.12-3.38,5.31,5.31,0,0,0-1.09-3.55A3.86,3.86,0,0,0,208,189.47Zm29.73,5.15a12.6,12.6,0,0,1-1.16,5.53,8.5,8.5,0,0,1-3.3,3.7,9.13,9.13,0,0,1-4.85,1.29,9.34,9.34,0,0,1-4.83-1.24,8.68,8.68,0,0,1-3.29-3.59A12.19,12.19,0,0,1,219,195v-1.2a12.52,12.52,0,0,1,1.15-5.52,8.62,8.62,0,0,1,3.29-3.71,9.27,9.27,0,0,1,4.89-1.3,9.15,9.15,0,0,1,4.84,1.29,8.7,8.7,0,0,1,3.3,3.68,12.13,12.13,0,0,1,1.2,5.44Zm-5.23-.89a8.92,8.92,0,0,0-1.07-4.82,3.41,3.41,0,0,0-3-1.65c-2.57,0-3.94,1.93-4.08,5.8l0,1.56a9.32,9.32,0,0,0,1,4.83,3.42,3.42,0,0,0,3.09,1.68,3.37,3.37,0,0,0,3-1.66,9,9,0,0,0,1.07-4.76Zm13,3.88v7.24h-5.14V183.52h8.51a9.73,9.73,0,0,1,4.32.91,6.68,6.68,0,0,1,2.91,2.56,6.9,6.9,0,0,1,1,3.77,6.16,6.16,0,0,1-2.24,5,9.24,9.24,0,0,1-6.12,1.86Zm0-4h3.37a3.14,3.14,0,0,0,2.27-.74,2.75,2.75,0,0,0,.79-2.11,3.41,3.41,0,0,0-.81-2.39,2.81,2.81,0,0,0-2.19-.91h-3.43Zm31.14-6.15h-6.4v17.36h-5.14V187.49H258.8v-4h17.82Zm20,17.36h-5.11v-8.91H284v8.91H278.8V183.52H284V192h7.57v-8.47h5.11ZM318,194.62a12.6,12.6,0,0,1-1.16,5.53,8.54,8.54,0,0,1-3.29,3.7,9.16,9.16,0,0,1-4.85,1.29,9.35,9.35,0,0,1-4.84-1.24,8.68,8.68,0,0,1-3.29-3.59A12.32,12.32,0,0,1,299.3,195v-1.2a12.66,12.66,0,0,1,1.14-5.52,8.58,8.58,0,0,1,3.3-3.71,9.22,9.22,0,0,1,4.89-1.3,9.09,9.09,0,0,1,4.83,1.29,8.57,8.57,0,0,1,3.3,3.68,12.13,12.13,0,0,1,1.2,5.44Zm-5.23-.89a8.92,8.92,0,0,0-1.07-4.82,3.38,3.38,0,0,0-3-1.65q-3.87,0-4.09,5.8v1.56a9.22,9.22,0,0,0,1,4.83,3.4,3.4,0,0,0,3.09,1.68,3.34,3.34,0,0,0,3-1.66,9,9,0,0,0,1.07-4.76Zm21.11,2.08h-8.09v5.09h9.55v3.95H320.61V183.52h14.72v4h-9.58V192h8.09Zm-294,22.71H45v21.33H39.83V226.4l-7.66,13.45H27V218.52h5.14V232Zm15.76,21.33V218.52h7.66A10.79,10.79,0,0,1,69.51,220a5.58,5.58,0,0,1,1.39,7.21A4.48,4.48,0,0,1,68.66,229a4.47,4.47,0,0,1,2.56,1.64,4.73,4.73,0,0,1,.9,2.93,5.64,5.64,0,0,1-2,4.71c-1.32,1.05-3.27,1.58-5.87,1.6Zm5.14-9.07v5.12H64.1a3.23,3.23,0,0,0,2.14-.64,2.22,2.22,0,0,0,.75-1.8,2.37,2.37,0,0,0-2.65-2.68Zm0-3.37h2.68a3.84,3.84,0,0,0,2.41-.61,2.2,2.2,0,0,0,.71-1.77,2.27,2.27,0,0,0-.77-1.94,4.14,4.14,0,0,0-2.51-.6H60.73Zm19.37-1.55h2.65a10.88,10.88,0,0,1,4.48.87,6.69,6.69,0,0,1,3,2.44,6.71,6.71,0,0,1-1.29,8.72,9.4,9.4,0,0,1-6.27,2H74.94V218.52H80.1Zm17.86,14H92.83V218.52H98Zm-17.86-10v6.08h2.64a3.42,3.42,0,0,0,2.47-.88,3,3,0,0,0,.92-2.28,2.72,2.72,0,0,0-.9-2.12,3.67,3.67,0,0,0-2.52-.8Zm35.4-7.33h-9.27v17.36h-5.14V218.52H115.5Zm19.41,7.13a12.6,12.6,0,0,1-1.15,5.53,8.56,8.56,0,0,1-3.3,3.7,9.16,9.16,0,0,1-4.85,1.29,9.29,9.29,0,0,1-4.83-1.24,8.63,8.63,0,0,1-3.3-3.59,12.32,12.32,0,0,1-1.23-5.35v-1.2a12.66,12.66,0,0,1,1.14-5.52,8.64,8.64,0,0,1,3.3-3.71,9.24,9.24,0,0,1,4.89-1.3,9.15,9.15,0,0,1,4.84,1.29,8.61,8.61,0,0,1,3.29,3.68,12.13,12.13,0,0,1,1.2,5.44Zm-5.23-.89a8.83,8.83,0,0,0-1.07-4.82,3.38,3.38,0,0,0-3-1.65q-3.87,0-4.08,5.8l0,1.56a9.32,9.32,0,0,0,1,4.83,3.4,3.4,0,0,0,3.09,1.68,3.34,3.34,0,0,0,3-1.66,8.9,8.9,0,0,0,1.07-4.76ZM157,245.09H152.4v-5.24H140.79v5.23H136l-.37-9.18h1.51a5.39,5.39,0,0,0,1.9-2.72,21.13,21.13,0,0,0,1-5.53l.66-9.13h14.52V235.9h2.27Zm-14-9.19h7.18V222.49h-4.54l-.39,5.33A18.25,18.25,0,0,1,143,235.9Zm34.18,3.95h-5.11v-8.91h-7.58v8.91h-5.14V218.52h5.14V227h7.58v-8.47h5.11Zm21.33-10.23a12.6,12.6,0,0,1-1.16,5.53,8.5,8.5,0,0,1-3.3,3.7,9.12,9.12,0,0,1-4.84,1.29,9.35,9.35,0,0,1-4.84-1.24,8.68,8.68,0,0,1-3.29-3.59,12.19,12.19,0,0,1-1.24-5.35v-1.2a12.66,12.66,0,0,1,1.15-5.52,8.62,8.62,0,0,1,3.29-3.71,9.28,9.28,0,0,1,4.9-1.3,9.14,9.14,0,0,1,4.83,1.29,8.57,8.57,0,0,1,3.3,3.68,12.13,12.13,0,0,1,1.2,5.44Zm-5.23-.89a8.92,8.92,0,0,0-1.07-4.82,3.38,3.38,0,0,0-3-1.65q-3.87,0-4.09,5.8l0,1.56a9.21,9.21,0,0,0,1,4.83,3.4,3.4,0,0,0,3.09,1.68,3.35,3.35,0,0,0,3-1.66,9,9,0,0,0,1.07-4.76Zm21.11,2.08h-8.09v5.09h9.55v3.95H201.14V218.52h14.72v4h-9.58V227h8.09Zm25.44-8.32h-9.24v3.37h2.65a10.88,10.88,0,0,1,4.48.87,6.69,6.69,0,0,1,3,2.44,6.74,6.74,0,0,1-1.29,8.72,9.4,9.4,0,0,1-6.27,2H225.4V218.52h14.41Zm-9.24,7.33v6.08h2.63a3.45,3.45,0,0,0,2.48-.88,3,3,0,0,0,.92-2.28,2.7,2.7,0,0,0-.91-2.12,3.62,3.62,0,0,0-2.51-.8Zm18.72,2.79v7.24h-5.14V218.52h8.51a9.73,9.73,0,0,1,4.32.91,6.68,6.68,0,0,1,2.91,2.56,6.9,6.9,0,0,1,1,3.77,6.16,6.16,0,0,1-2.24,5,9.24,9.24,0,0,1-6.12,1.86Zm0-4h3.37a3.15,3.15,0,0,0,2.27-.74,2.75,2.75,0,0,0,.79-2.11,3.41,3.41,0,0,0-.81-2.39,2.83,2.83,0,0,0-2.19-.91h-3.43Zm26.91-10.12h5.14v21.33H276.2V226.4l-7.66,13.45h-5.15V218.52h5.15V232Zm24.59,4h-6.4v17.36h-5.14V222.49H283v-4h17.83Zm7.59,3.37H311a10.88,10.88,0,0,1,4.48.87,6.69,6.69,0,0,1,3,2.44,6.71,6.71,0,0,1-1.29,8.72,9.4,9.4,0,0,1-6.27,2h-7.72V218.52h5.16Zm0,4v6.08H311a3.42,3.42,0,0,0,2.47-.88,3,3,0,0,0,.93-2.28,2.73,2.73,0,0,0-.91-2.12,3.67,3.67,0,0,0-2.52-.8Zm26.75,1H327v5.09h9.55v3.95H321.9V218.52h14.72v4H327V227h8.09Zm-11.46-15.5a1.79,1.79,0,0,1,.63-1.37,2.31,2.31,0,0,1,1.59-.57,2.24,2.24,0,0,1,1.56.57,1.78,1.78,0,0,1,0,2.75,2.24,2.24,0,0,1-1.56.57,2.31,2.31,0,0,1-1.59-.57A1.79,1.79,0,0,1,323.67,215.31Zm7.6,0a1.79,1.79,0,0,1,.63-1.37,2.31,2.31,0,0,1,1.59-.57,2.22,2.22,0,0,1,1.56.57,1.78,1.78,0,0,1,0,2.75,2.22,2.22,0,0,1-1.56.57,2.31,2.31,0,0,1-1.59-.57A1.79,1.79,0,0,1,331.27,215.31Z" transform="translate(-27.03 -57.88)"/><path class="cls-3" d="M40.13,151.23H31.81v3H34.2a9.82,9.82,0,0,1,4,.78,6,6,0,0,1,2.69,2.2,5.61,5.61,0,0,1,.95,3.24,5.69,5.69,0,0,1-2.11,4.6,8.45,8.45,0,0,1-5.64,1.77h-7v-19.2h13Zm-8.32,6.59v5.47h2.38a3,3,0,0,0,2.22-.79,2.68,2.68,0,0,0,.83-2,2.46,2.46,0,0,0-.81-1.92,3.32,3.32,0,0,0-2.27-.72Zm28.48-.17a11.38,11.38,0,0,1-1,5,7.77,7.77,0,0,1-3,3.33,8.17,8.17,0,0,1-4.36,1.16A8.34,8.34,0,0,1,47.57,166a7.69,7.69,0,0,1-3-3.23A11.13,11.13,0,0,1,43.49,158v-1.08a11.46,11.46,0,0,1,1-5,7.86,7.86,0,0,1,3-3.34,8.34,8.34,0,0,1,4.4-1.17,8.23,8.23,0,0,1,4.35,1.16,7.72,7.72,0,0,1,3,3.31,11,11,0,0,1,1.08,4.9Zm-4.71-.81a8,8,0,0,0-1-4.33A3,3,0,0,0,51.89,151c-2.32,0-3.54,1.74-3.68,5.22v1.41a8.28,8.28,0,0,0,.94,4.34,3.05,3.05,0,0,0,2.78,1.51,3,3,0,0,0,2.7-1.49,8.1,8.1,0,0,0,1-4.28Zm22.82-9.19v19.2H73.78V151.23H69.47l-.32,6.44a19.42,19.42,0,0,1-.92,5.33,5.83,5.83,0,0,1-2.07,2.91,6.5,6.5,0,0,1-3.64.94H61.28v-3.56l.64-.07a2.49,2.49,0,0,0,2-1.68,16.92,16.92,0,0,0,.8-5l.33-8.84Zm7.54,6.61h2.39a9.87,9.87,0,0,1,4,.78,6.06,6.06,0,0,1,2.68,2.2,5.61,5.61,0,0,1,1,3.24,5.69,5.69,0,0,1-2.11,4.6,8.43,8.43,0,0,1-5.64,1.77h-7v-19.2h4.64Zm0,3.56v5.47h2.38a3.07,3.07,0,0,0,2.23-.79,2.71,2.71,0,0,0,.83-2,2.46,2.46,0,0,0-.82-1.92,3.32,3.32,0,0,0-2.27-.72Zm16.71-10.17v15.64h4.77V147.65h4.63v15.64h4.72V147.65h4.6v19.2H98v-19.2Zm32.83,0h4.62v19.2h-4.62v-12.1l-6.9,12.1H124v-19.2h4.63v12.12Zm19.36,11.07h-7.27v4.57h8.59v3.56H142.94v-19.2h13.25v3.58h-8.62v4h7.27ZM172.22,156h0l3.18-8.35h4.87l-6.46,15.23a8,8,0,0,1-2.34,3.26,5.41,5.41,0,0,1-3,1h-.93l-.71,0-.08-3.59a3.8,3.8,0,0,0,.92.06,2.82,2.82,0,0,0,1.58-.36,2.63,2.63,0,0,0,.87-1.41l.23-.63-6.94-13.52h4.92ZM198,166.85h-4.63V151.23h-6.89v15.62h-4.63v-19.2H198Zm13.79-3.59h-6.34l-1.11,3.59h-4.94l7-19.2h4.35l7.09,19.2h-5Zm-5.23-3.57h4.12L208.59,153Zm19.52-.43h-2.19v7.59h-4.63v-19.2h4.63v7.43h1.78l3.69-7.43H235l-5.28,8.86,5.93,10.34h-5.47Zm26.53-1.61a11.24,11.24,0,0,1-1.05,5,7.69,7.69,0,0,1-3,3.33,8.21,8.21,0,0,1-4.37,1.16,8.39,8.39,0,0,1-4.35-1.12,7.73,7.73,0,0,1-3-3.23,10.86,10.86,0,0,1-1.11-4.81v-1.08a11.32,11.32,0,0,1,1-5,7.77,7.77,0,0,1,3-3.34,8.38,8.38,0,0,1,4.41-1.17,8.28,8.28,0,0,1,4.35,1.16,7.76,7.76,0,0,1,3,3.31,10.84,10.84,0,0,1,1.09,4.9Zm-4.71-.81a8,8,0,0,0-1-4.33,3.05,3.05,0,0,0-2.73-1.49q-3.48,0-3.68,5.22v1.41a8.38,8.38,0,0,0,.93,4.34,3.06,3.06,0,0,0,2.78,1.51,3,3,0,0,0,2.71-1.49,8.1,8.1,0,0,0,1-4.28Zm7.09,10v-19.2h6.9A9.79,9.79,0,0,1,267.5,149a5,5,0,0,1,1.25,6.49,4,4,0,0,1-2,1.55,4.11,4.11,0,0,1,2.31,1.48,4.27,4.27,0,0,1,.8,2.64,5.1,5.1,0,0,1-1.79,4.24,8.53,8.53,0,0,1-5.29,1.44Zm4.63-8.16v4.6h3a2.91,2.91,0,0,0,1.93-.57,2,2,0,0,0,.67-1.62,2.13,2.13,0,0,0-2.39-2.41Zm0-3H262a3.44,3.44,0,0,0,2.16-.56,2,2,0,0,0,.65-1.59,2,2,0,0,0-.7-1.74,3.72,3.72,0,0,0-2.25-.54H259.6Zm19.59,3.6H277v7.59h-4.63v-19.2H277v7.43h1.78l3.69-7.43h5.61l-5.28,8.86,5.93,10.34h-5.47Zm21.95-11.61h4.63v19.2h-4.63v-12.1l-6.89,12.1h-4.63v-19.2h4.63v12.12Zm32.41,11.58H315v-3.48h18.54Z" transform="translate(-27.03 -57.88)"/><g class="cls-4"><path class="cls-5" d="M44.14,77.49l-1.73,8.07h6c-.6,4.33-10.34,6.2-8.87-4.27C40.61,74,48.94,70,50.81,75.69l10.34-2.87c-3.47-16.81-30.82-13.41-33,9.07C27.07,92.83,34.54,98.83,43.21,98.7a23.61,23.61,0,0,0,13.4-4.41l3.6-16.74H44.14Z" transform="translate(-27.03 -57.88)"/><path class="cls-5" d="M63.08,73.35l-5.2,24.08H68.69l5.13-24.08Z" transform="translate(-27.03 -57.88)"/><path class="cls-5" d="M79.16,57.88,70.62,97.43H81.36L90,57.88Z" transform="translate(-27.03 -57.88)"/><path class="cls-5" d="M76,63.48H65.22l-1.94,8.8,11.47-3.13Z" transform="translate(-27.03 -57.88)"/><path class="cls-5" d="M163.2,71.55a13.18,13.18,0,0,0-10.61,5.54c.4-1.8.8-3.74.8-3.74h-3.73l2.26-10.47H141.18l-2.26,10.47h-2l2.26-10.47H128.45l-2.27,10.47h-3.67l-1.33,6.4a10.45,10.45,0,0,0-10.47-8.2c-6.34,0-11.21,4.54-13.28,10.74l5.14-24.41H91.83l-8.6,39.55H94l2.33-10.81C96,91,97.5,98.7,107.17,98.7c4.87,0,11.07-3.47,12.61-8.27l-8.41-1.6A4.68,4.68,0,0,1,107.64,91c-2.34,0-2.94-2.13-2.47-4.07h15.67a12.13,12.13,0,0,0,.6-3.33,8.85,8.85,0,0,0-.06-1.87h3.06L121,97.5h10.74l3.47-15.81h2l-3.4,15.81h10.74l3.46-15.81h2.27a35.16,35.16,0,0,0-1.13,4.53v.07c-.54,4.2.73,12.47,10.74,12.47,4.87,0,11.07-3.46,12.6-8.27l-8.4-1.6A4.69,4.69,0,0,1,160.39,91c-2.33,0-2.93-2.14-2.46-4.07H173.6a13.32,13.32,0,0,0,.6-3.34C174.47,75.29,168.6,71.55,163.2,71.55ZM112.31,82,106.37,82C107.24,78.62,112.77,77.82,112.31,82Zm52.62,0H159C159.93,78.62,165.4,77.82,164.93,82Z" transform="translate(-27.03 -57.88)"/></g></svg>