<svg xmlns="http://www.w3.org/2000/svg" xmlns:xlink="http://www.w3.org/1999/xlink" viewBox="0 0 1228.47 52.12"><defs><style>.cls-1{fill:url(#Безымянный_градиент);}.cls-2{fill:#fff;}</style><linearGradient id="Безымянный_градиент" x1="555.24" y1="906.97" x2="1295.1" y2="906.97" gradientTransform="translate(-88.79 -878.23)" gradientUnits="userSpaceOnUse"><stop offset="0" stop-color="#292d7a"/><stop offset="0.14" stop-color="#ec6720"/><stop offset="0.84" stop-color="#ec6720"/><stop offset="1" stop-color="#292d7a"/></linearGradient></defs><g id="Слой_2" data-name="Слой 2"><g id="Слой_1-2" data-name="Слой 1"><rect class="cls-1" x="449.47" y="26.19" width="779" height="5.1"/><path class="cls-2" d="M19.71,18.54h0L26.77,0H37.61L23.26,33.83Q20.94,39,18,41.07a11.74,11.74,0,0,1-6.74,2.2H9.22l-1.58-.06-.17-8a9.56,9.56,0,0,0,2,.12A6.33,6.33,0,0,0,13,34.54a5.83,5.83,0,0,0,1.94-3.14l.49-1.4L0,0H10.93ZM52.09,35.65a4.46,4.46,0,0,0,3.22-1.11,4.21,4.21,0,0,0,1.11-3.17h9.26a11,11,0,0,1-3.75,8.56,13.9,13.9,0,0,1-9.61,3.34q-6.91,0-10.9-4.34t-4-12v-.41a19.48,19.48,0,0,1,1.75-8.47A12.87,12.87,0,0,1,44.3,12.4a15.11,15.11,0,0,1,7.91-2q6.18,0,9.82,3.42a12.2,12.2,0,0,1,3.63,9.29H56.4a5.43,5.43,0,0,0-1.2-3.78A4.17,4.17,0,0,0,52,18c-2.56,0-4.06,1.64-4.49,4.9a35.8,35.8,0,0,0-.2,4.27c0,3.19.38,5.39,1.14,6.63A4,4,0,0,0,52.09,35.65ZM98.17,11v31.7H88.3V18.6H82.38l-.53,9.7q-.55,7.2-3.25,10.78t-8,3.6H67.49l-.11-7.56,1-.11a3.62,3.62,0,0,0,2.9-2.61,23.76,23.76,0,0,0,1.23-7.24L73.13,11Zm4.13,15.56a18.54,18.54,0,0,1,1.85-8.44,13.17,13.17,0,0,1,5.3-5.71,15.87,15.87,0,0,1,8.11-2q7.13,0,11.22,4.42t4.1,12v.35q0,7.43-4.12,11.78t-11.14,4.34q-6.77,0-10.87-4t-4.42-11Zm9.87.61c0,2.94.46,5.08,1.38,6.45a4.58,4.58,0,0,0,4.07,2q5.28,0,5.39-8.11v-1Q123,18,117.56,18q-4.95,0-5.36,7.36Zm25.72,15.53V11h13.6q6.52,0,10,2.29A7.42,7.42,0,0,1,165,19.86a5.85,5.85,0,0,1-1.53,4A9.58,9.58,0,0,1,159,26.53a11.26,11.26,0,0,1,5.83,2.52,6,6,0,0,1,2,4.63,7.62,7.62,0,0,1-3.4,6.77q-3.37,2.25-9.73,2.28Zm9.9-12.92v5.36h5.77a4.23,4.23,0,0,0,2.64-.64,2.4,2.4,0,0,0,.79-2c0-1.76-1-2.68-3.05-2.76Zm0-6.09h4.1a4,4,0,0,0,2.49-.59,2.17,2.17,0,0,0,.73-1.79,2.39,2.39,0,0,0-.88-2.13,4.78,4.78,0,0,0-2.72-.62h-3.69ZM189.36,11h9.9v31.7h-9.9V24.23l-8.7,18.45h-9.93V11h9.93v18.4Zm42.77,0v31.7h-9.84V32.19h-3.8l-5.6,10.49H203l6.51-12.16a10.86,10.86,0,0,1-4.4-3.57,8.81,8.81,0,0,1-1.52-5,9.42,9.42,0,0,1,3.86-7.82A16.33,16.33,0,0,1,217.57,11ZM213.5,22.26a3.24,3.24,0,0,0,1.17,2.49,4.81,4.81,0,0,0,3.08,1.09h4.54v-7.3h-4.4a4.58,4.58,0,0,0-3.17,1.09,3.38,3.38,0,0,0-1.21,2.63Zm57.71,20.42a11,11,0,0,1-.93-2.84,9.17,9.17,0,0,1-7.62,3.43,11.29,11.29,0,0,1-7.62-2.7,8.63,8.63,0,0,1-3.15-6.77A8.89,8.89,0,0,1,255.7,26q3.81-2.62,11.07-2.63h3V21.7c0-2.91-1.26-4.36-3.78-4.37-2.35,0-3.53,1.15-3.52,3.46H252.6a8.85,8.85,0,0,1,3.9-7.47,16.39,16.39,0,0,1,10-2.87q6.06,0,9.58,3a10.29,10.29,0,0,1,3.6,8.11v14A14.4,14.4,0,0,0,281,42.24v.5ZM265,36.24a5.47,5.47,0,0,0,3.05-.79,5,5,0,0,0,1.76-1.79V28.59H267q-5.16,0-5.16,4.63a2.86,2.86,0,0,0,.91,2.2,3.34,3.34,0,0,0,2.32.82Zm33.72-4.63H295.8V42.68h-9.91V11h9.91v11.4h2.84l5-11.4h12.65L307,25.63h0l10.17,17.05H303.89ZM319.44,11h9.87V35.06H338V11H348V35.12h5.22l-.59,17h-9.31V42.71H319.45ZM375,11H385v31.7H375V24.23l-8.7,18.45h-9.93V11h9.93v18.4Zm33.64,0h9.9v31.7h-9.9V24.23L400,42.68H390V11H400v18.4Z"/></g></g></svg>