<svg width="1230" height="66" viewBox="0 0 1230 66" fill="none" xmlns="http://www.w3.org/2000/svg">
<rect x="450.579" y="36.3389" width="779" height="5.10041" fill="url(#paint0_linear)"/>
<path d="M14.1381 38.3662V52.8389H3.85486V10.1826H20.8763C24.1381 10.1826 27.0189 10.7881 29.5189 11.999C32.0385 13.1904 33.9818 14.8994 35.349 17.126C36.7357 19.333 37.4291 21.8428 37.4291 24.6553C37.4291 28.8154 35.9349 32.1455 32.9467 34.6455C29.9779 37.126 25.8959 38.3662 20.7006 38.3662H14.1381ZM14.1381 30.4268H20.8763C22.8685 30.4268 24.3822 29.9287 25.4174 28.9326C26.472 27.9365 26.9994 26.5303 26.9994 24.7139C26.9994 22.7217 26.4623 21.1299 25.3881 19.9385C24.3138 18.7471 22.849 18.1416 20.9935 18.1221H14.1381V30.4268ZM57.4095 53.4248C52.5463 53.4248 48.6107 51.9795 45.6029 49.0889C42.5951 46.1787 41.0912 42.3994 41.0912 37.751V36.9307C41.0912 33.6885 41.6869 30.8271 42.8783 28.3467C44.0892 25.8662 45.847 23.9521 48.1517 22.6045C50.4564 21.2373 53.1908 20.5537 56.3549 20.5537C60.808 20.5537 64.3236 21.9404 66.9017 24.7139C69.4799 27.4678 70.7689 31.3154 70.7689 36.2568V40.0947H51.14C51.4916 41.8721 52.2631 43.2686 53.4545 44.2842C54.6459 45.2998 56.1888 45.8076 58.0834 45.8076C61.2084 45.8076 63.6498 44.7139 65.4076 42.5264L69.9193 47.8584C68.6888 49.5576 66.9408 50.915 64.6752 51.9307C62.4291 52.9268 60.0072 53.4248 57.4095 53.4248ZM56.2963 28.1709C53.4056 28.1709 51.6869 30.085 51.14 33.9131H61.101V33.1514C61.14 31.5693 60.7396 30.3486 59.8998 29.4893C59.0599 28.6104 57.8588 28.1709 56.2963 28.1709ZM96.9603 28.7568H84.4799V52.8389H74.5775V21.1396H96.9603V28.7568ZM118.347 21.1396H128.249V52.8389H118.347V34.3818L109.646 52.8389H99.7142V21.1396H109.646V39.5381L118.347 21.1396ZM146.941 45.8076C148.328 45.8076 149.402 45.4365 150.163 44.6943C150.925 43.9326 151.296 42.8779 151.277 41.5303H160.535C160.535 45.0068 159.285 47.8584 156.785 50.085C154.304 52.3115 151.101 53.4248 147.175 53.4248C142.566 53.4248 138.933 51.9795 136.277 49.0889C133.62 46.1982 132.292 42.1943 132.292 37.0771V36.667C132.292 33.4639 132.878 30.6416 134.05 28.2002C135.242 25.7393 136.951 23.8545 139.177 22.5459C141.404 21.2178 144.04 20.5537 147.087 20.5537C151.208 20.5537 154.48 21.6963 156.902 23.9814C159.324 26.2666 160.535 29.3623 160.535 33.2686H151.277C151.277 31.6279 150.876 30.3682 150.076 29.4893C149.275 28.6104 148.201 28.1709 146.853 28.1709C144.294 28.1709 142.8 29.8018 142.37 33.0635C142.234 34.0986 142.165 35.5244 142.165 37.3408C142.165 40.5244 142.546 42.7314 143.308 43.9619C144.07 45.1924 145.281 45.8076 146.941 45.8076ZM192.468 28.6982H182.478V52.8389H172.546V28.6982H162.703V21.1396H192.468V28.6982ZM225.603 37.2236C225.603 42.1455 224.49 46.0811 222.263 49.0303C220.056 51.96 217.068 53.4248 213.298 53.4248C210.388 53.4248 207.995 52.3604 206.12 50.2314V65.0264H196.247V21.1396H205.476L205.769 24.0693C207.663 21.7256 210.154 20.5537 213.24 20.5537C217.146 20.5537 220.183 21.999 222.351 24.8896C224.519 27.7607 225.603 31.7158 225.603 36.7549V37.2236ZM215.73 36.6084C215.73 30.9834 214.089 28.1709 210.808 28.1709C208.464 28.1709 206.902 29.0107 206.12 30.6904V43.1709C206.98 44.9287 208.562 45.8076 210.867 45.8076C214.011 45.8076 215.632 43.0928 215.73 37.6631V36.6084ZM247.839 52.8389C247.488 52.1943 247.175 51.2471 246.902 49.9971C245.085 52.2822 242.546 53.4248 239.285 53.4248C236.296 53.4248 233.757 52.5264 231.667 50.7295C229.578 48.9131 228.533 46.6377 228.533 43.9033C228.533 40.4658 229.802 37.8682 232.341 36.1104C234.88 34.3525 238.572 33.4736 243.415 33.4736H246.462V31.8037C246.462 28.8936 245.203 27.4385 242.683 27.4385C240.339 27.4385 239.167 28.5908 239.167 30.8955H229.294C229.294 27.8291 230.593 25.3389 233.191 23.4248C235.808 21.5107 239.138 20.5537 243.181 20.5537C247.224 20.5537 250.417 21.54 252.761 23.5127C255.105 25.4854 256.306 28.1904 256.365 31.6279V45.6611C256.404 48.5713 256.853 50.7979 257.712 52.3408V52.8389H247.839ZM241.658 46.3936C242.888 46.3936 243.904 46.1299 244.704 45.6025C245.525 45.0752 246.111 44.4795 246.462 43.8154V38.7471H243.591C240.154 38.7471 238.435 40.29 238.435 43.376C238.435 44.2744 238.738 45.0068 239.343 45.5732C239.949 46.1201 240.72 46.3936 241.658 46.3936ZM261.667 21.1396H271.54V45.2217H280.271V21.1396H290.203V45.2803H295.417L294.831 62.2432H285.515V52.8389H261.667V21.1396ZM317.273 21.1396H327.175V52.8389H317.273V34.3818L308.572 52.8389H298.64V21.1396H308.572V39.5381L317.273 21.1396ZM360.046 21.1396V52.8389H350.203V42.3506H346.394L340.798 52.8389H330.954L337.458 40.6807C335.564 39.7822 334.099 38.5908 333.064 37.1064C332.048 35.6221 331.54 33.9424 331.54 32.0674C331.54 28.8447 332.829 26.2373 335.408 24.2451C337.986 22.2334 341.345 21.1982 345.486 21.1396H360.046ZM341.413 32.4189C341.413 33.376 341.804 34.2061 342.585 34.9092C343.386 35.5928 344.411 35.9541 345.661 35.9932H350.203V28.6982H345.808C344.519 28.6982 343.464 29.0596 342.644 29.7822C341.824 30.5049 341.413 31.3838 341.413 32.4189Z" fill="white"/>
<defs>
<linearGradient id="paint0_linear" x1="467.561" y1="36.8368" x2="1207.42" y2="36.8368" gradientUnits="userSpaceOnUse">
<stop stop-color="#292D7A"/>
<stop offset="0.140625" stop-color="#EC6720"/>
<stop offset="0.838542" stop-color="#EC6720"/>
<stop offset="1" stop-color="#292D7A"/>
</linearGradient>
</defs>
</svg>
